<?xml version="1.0" encoding="utf-8"?>
<!-- Generator: Adobe Illustrator 15.0.2, SVG Export Plug-In . SVG Version: 6.00 Build 0)  -->
<!DOCTYPE svg PUBLIC "-//W3C//DTD SVG 1.1//EN" "http://www.w3.org/Graphics/SVG/1.1/DTD/svg11.dtd" [
	<!ENTITY ns_extend "http://ns.adobe.com/Extensibility/1.0/">
	<!ENTITY ns_ai "http://ns.adobe.com/AdobeIllustrator/10.0/">
	<!ENTITY ns_graphs "http://ns.adobe.com/Graphs/1.0/">
	<!ENTITY ns_vars "http://ns.adobe.com/Variables/1.0/">
	<!ENTITY ns_imrep "http://ns.adobe.com/ImageReplacement/1.0/">
	<!ENTITY ns_sfw "http://ns.adobe.com/SaveForWeb/1.0/">
	<!ENTITY ns_custom "http://ns.adobe.com/GenericCustomNamespace/1.0/">
	<!ENTITY ns_adobe_xpath "http://ns.adobe.com/XPath/1.0/">
]>
<svg version="1.1" id="Layer_1" xmlns:x="&ns_extend;" xmlns:i="&ns_ai;" xmlns:graph="&ns_graphs;"
	 xmlns="http://www.w3.org/2000/svg" xmlns:xlink="http://www.w3.org/1999/xlink" x="0px" y="0px" width="108px" height="108px"
	 viewBox="0 0 108 108" enable-background="new 0 0 108 108" xml:space="preserve">
<metadata>
	<sfw  xmlns="&ns_sfw;">
		<slices></slices>
		<sliceSourceBounds  height="82.9" width="82.898" y="-95.45" x="12.551" bottomLeftOrigin="true"></sliceSourceBounds>
	</sfw>
</metadata>
<g>
	<path fill="#F2F7F6" d="M95.449,54c0,22.893-18.558,41.45-41.45,41.45c-22.892,0-41.448-18.558-41.448-41.45
		c0-22.892,18.557-41.45,41.448-41.45C76.892,12.55,95.449,31.108,95.449,54"/>
	<path fill="#353635" d="M78.894,32.838l-1.688-3.135l-2.652-2.653l-3.617-2.411l-3.016-0.965l-2.894-0.361l-3.13,0.329
		l-2.899,0.394l-2.894,1.809l-2.049,1.929l-1.447,2.532l-1.086,3.376v3.015l0.482,3.376l1.326,3.135l1.568,2.291l2.772,1.688
		l3.231,0.962l-2.387-1.324l-2.773-3.014l-1.447-2.412l-0.724-3.497l0.121-3.737l1.688-4.221l3.979-3.014l4.341-0.844l5.667,1.206
		l4.703,3.376l2.41,3.979l0.604,3.014l-0.964,4.702l-2.05,3.859l-2.946,1.749c-1.996,0.328-3.831,0.766-3.831,0.766l-9.496,1.447
		l-10.941,0.633l0.022-0.608l0.214-1.741c0,0-0.904-3.014-1.417-3.526l-1.417-1.116c0,0-1.688-0.572-2.622-0.241
		c0,0-5.275,1.597-5.366,1.658c-0.09,0.06-1.627,1.236-1.627,1.236l-0.122,0.693l0.307,0.208c0.272,0.182,0.814,2.261,0.814,2.261
		l-2.984,2.442c0,0-0.362,1.357,0.361,1.357c0,0,0.543,1.808,1.356,1.989c0.814,0.181,4.342,0.723,4.342,0.723l-0.452,1.538
		l1.175,6.963l-0.542,9.767l-1.718,5.064l-1.81,1.086l-0.121,0.15l-0.36,1.086l0.054,0.605l0.452-0.724l0.693-0.302l-0.392,0.845
		l0.362,0.903l0.029-0.754l0.573-0.692l1.513-0.033l1.719-0.903l0.994-6.15l1.718-3.889l0.605-3.373l0.028-0.153l2.713,2.26v10.491
		l-0.046,1.628l-2.402,1.087l-1.311,1.176v0.859l0.859-1.04l0.543-0.362l-0.407,1.402l1.266-1.131l-0.226,0.904l1.221-0.724
		l1.673,0.136l1.13-1.402l0.725-6.465l-0.045,0.059L49.75,68l-1.085-2.714l6.33-0.542l2.803-1.176l3.778-2.376l-0.347,0.253
		l0.316,0.362l1.715-1.419l-2.388,5.712l0.271,2.804l3.348,7.777l-0.182,0.723l-4.883,0.453l-0.639,0.559l-0.121,0.092l-0.768,1.627
		l1.175-1.084l0.674-0.357l0.056,0.012l-0.457,0.707l-0.227,0.949l0.859-0.904l0.271,0.633l5.743-0.136l0.025-0.036l0.1,0.02
		l1.156-1.735l0.074-0.101L67.343,78.1l0.041-0.062l-2.713-8.952l1.76-3.67l0.045,0.325l0.271-0.813l-0.021-0.127l0.025-0.057
		l0.633,3.617l2.532,3.708c0,0,4.522,1.628,4.793,1.899c0.272,0.271-0.271,3.436-0.271,3.436l-0.729-0.012l-1.93,1.191l-0.573,0.572
		l0.935,1.189l0.688-0.518l0.216,0.036l0.407-0.198h0.825l-0.041,0.018h0.754l0.018-0.018h0.514l0.543-0.453l1.537-6.148
		l-5.334-3.618l-0.905-3.437l3.528-8.952l-0.869-6.511l0.084,0.045l1.17-0.872l2.051-2.412l1.445-2.411l0.966-3.979l0.241-3.256
		L78.894,32.838z"/>
</g>
</svg>
