<?xml version="1.0" encoding="utf-8"?>
<!-- Generator: Adobe Illustrator 15.0.2, SVG Export Plug-In . SVG Version: 6.00 Build 0)  -->
<!DOCTYPE svg PUBLIC "-//W3C//DTD SVG 1.1//EN" "http://www.w3.org/Graphics/SVG/1.1/DTD/svg11.dtd" [
	<!ENTITY ns_extend "http://ns.adobe.com/Extensibility/1.0/">
	<!ENTITY ns_ai "http://ns.adobe.com/AdobeIllustrator/10.0/">
	<!ENTITY ns_graphs "http://ns.adobe.com/Graphs/1.0/">
	<!ENTITY ns_vars "http://ns.adobe.com/Variables/1.0/">
	<!ENTITY ns_imrep "http://ns.adobe.com/ImageReplacement/1.0/">
	<!ENTITY ns_sfw "http://ns.adobe.com/SaveForWeb/1.0/">
	<!ENTITY ns_custom "http://ns.adobe.com/GenericCustomNamespace/1.0/">
	<!ENTITY ns_adobe_xpath "http://ns.adobe.com/XPath/1.0/">
]>
<svg version="1.1" id="Layer_1" xmlns:x="&ns_extend;" xmlns:i="&ns_ai;" xmlns:graph="&ns_graphs;"
	 xmlns="http://www.w3.org/2000/svg" xmlns:xlink="http://www.w3.org/1999/xlink" x="0px" y="0px" width="108px" height="108px"
	 viewBox="0 0 108 108" enable-background="new 0 0 108 108" xml:space="preserve">
<metadata>
	<sfw  xmlns="&ns_sfw;">
		<slices></slices>
		<sliceSourceBounds  height="82.899" width="82.899" y="-185.449" x="102.55" bottomLeftOrigin="true"></sliceSourceBounds>
	</sfw>
</metadata>
<g>
	<path fill="#F2F7F6" d="M12.55,54c0,22.893,18.558,41.45,41.449,41.45c22.893,0,41.45-18.557,41.45-41.45
		c0-22.892-18.557-41.449-41.45-41.449C31.108,12.55,12.55,31.108,12.55,54"/>
	<polygon fill="#353635" points="55.807,32.853 61.893,32.586 64.254,31.656 65.883,29.56 67.613,28.762 68.211,30.392 
		67.414,33.717 66.449,35.047 67.68,39.138 68.578,43.461 68.578,46.322 67.646,49.083 68.145,50.379 68.145,52.875 67.547,52.875 
		68.012,55.635 67.314,55.635 67.447,57.795 66.682,58.76 66.383,58.561 66.084,60.889 64.686,63.084 64.188,62.617 62.891,66.311 
		62.191,66.176 60.729,68.604 59.963,69.004 63.057,71.299 65.85,73.393 66.15,74.391 65.783,75.521 65.418,74.191 64.986,74.291 
		63.922,73.627 63.488,73.793 63.623,74.791 62.725,75.521 63.023,74.457 62.791,73.561 62.191,73.959 61.727,73.227 59.764,71.764 
		58.633,71.73 59.199,72.463 59.299,73.926 58.9,74.691 58.967,73.561 58.467,73.16 58.334,73.594 57.336,73.428 56.172,71.863 
		56.572,72.828 56.572,74.092 56.639,75.156 55.973,75.289 56.305,74.658 55.807,73.992 55.408,74.158 54.61,73.461 54.376,72.463 
		53.312,71.664 52.115,72.529 52.115,73.127 50.917,73.66 51.284,74.49 50.186,73.428 50.685,71.797 51.849,71.166 51.35,70.234 
		50.519,70.168 48.657,71.398 47.493,74.424 46.661,74.891 45.031,79.146 44.2,79.146 43.833,79.779 42.903,79.779 42.503,80.307 
		41.606,80.307 42.77,78.98 42.171,78.516 41.074,79.779 40.375,78.416 40.042,79.146 39.543,78.217 40.009,74.291 40.641,71.365 
		39.246,72.363 39.078,65.877 40.276,62.318 40.009,60.59 40.741,58.859 40.142,59.16 40.807,53.439 42.304,49.215 45.198,46.255 
		47.326,44.992 47.093,42.763 47.459,41.667 49.92,36.644 49.621,36.245 50.453,33.75 50.519,32.254 49.687,29.66 50.453,27.5 
		51.317,27.5 52.847,28.829 54.171,31.789 	"/>
</g>
</svg>
