<?xml version="1.0" encoding="utf-8"?>
<!-- Generator: Adobe Illustrator 15.0.2, SVG Export Plug-In . SVG Version: 6.00 Build 0)  -->
<!DOCTYPE svg PUBLIC "-//W3C//DTD SVG 1.1//EN" "http://www.w3.org/Graphics/SVG/1.1/DTD/svg11.dtd" [
	<!ENTITY ns_extend "http://ns.adobe.com/Extensibility/1.0/">
	<!ENTITY ns_ai "http://ns.adobe.com/AdobeIllustrator/10.0/">
	<!ENTITY ns_graphs "http://ns.adobe.com/Graphs/1.0/">
	<!ENTITY ns_vars "http://ns.adobe.com/Variables/1.0/">
	<!ENTITY ns_imrep "http://ns.adobe.com/ImageReplacement/1.0/">
	<!ENTITY ns_sfw "http://ns.adobe.com/SaveForWeb/1.0/">
	<!ENTITY ns_custom "http://ns.adobe.com/GenericCustomNamespace/1.0/">
	<!ENTITY ns_adobe_xpath "http://ns.adobe.com/XPath/1.0/">
]>
<svg version="1.1" id="Layer_1" xmlns:x="&ns_extend;" xmlns:i="&ns_ai;" xmlns:graph="&ns_graphs;"
	 xmlns="http://www.w3.org/2000/svg" xmlns:xlink="http://www.w3.org/1999/xlink" x="0px" y="0px" width="108px" height="108px"
	 viewBox="0 0 108 108" enable-background="new 0 0 108 108" xml:space="preserve">
<metadata>
	<sfw  xmlns="&ns_sfw;">
		<slices></slices>
		<sliceSourceBounds  height="82.899" width="82.898" y="-95.449" x="12.551" bottomLeftOrigin="true"></sliceSourceBounds>
	</sfw>
</metadata>
<g>
	<path fill="#F2F7F6" d="M95.449,54c0,22.893-18.559,41.45-41.45,41.45S12.551,76.893,12.551,54
		c0-22.892,18.557-41.449,41.448-41.449S95.449,31.108,95.449,54"/>
	<polygon fill="#353635" points="79.268,72.402 80.376,63.92 78.768,59.15 79.323,54.715 76.107,49.781 74.443,48.838 
		66.903,47.896 54.594,49.448 53.152,46.842 48.994,45.677 47.22,45.623 47.496,44.292 49.604,44.014 52.875,44.68 54.538,44.458 
		56.035,42.683 52.266,43.848 51.434,42.683 53.431,41.852 54.372,40.743 51.655,41.464 51.101,41.464 51.323,39.246 50.657,36.64 
		50.491,39.799 49.383,40.799 48.328,40.688 48.718,37.749 47.774,36.085 47.774,37.916 46.499,39.912 45.058,40.465 42.895,41.187 
		42.119,41.076 42.175,38.636 41.453,39.357 41.12,38.969 40.678,40.299 39.734,41.242 38.625,40.799 39.124,37.471 37.018,39.024 
		36.407,38.026 39.68,33.756 37.684,34.921 35.021,36.03 34.412,35.753 34.744,34.588 35.742,33.924 35.133,31.982 34.8,33.203 
		33.08,34.866 31.362,35.253 30.253,33.979 30.309,30.652 29.199,32.704 29.754,35.864 28.368,36.64 27.592,36.03 27.647,34.921 
		28.368,33.036 27.204,33.424 26.039,35.199 24.985,34.81 24.1,32.426 23.434,34.367 25.373,36.307 26.927,37.417 29.532,38.969 
		35.521,40.299 37.073,40.799 37.018,41.464 35.799,41.908 34.855,43.238 30.752,44.735 29.421,46.399 29.145,47.674 32.139,50.391 
		35.521,49.559 36.02,50.113 36.74,49.892 38.404,51.611 39.124,53.606 40.288,54.715 40.732,55.77 41.177,55.547 41.786,56.434 
		42.063,55.824 42.839,52.11 45.833,57.875 49.327,61.535 51.156,63.531 51.212,67.799 50.602,68.631 51.378,76.062 49.383,78.945 
		51.767,79.057 53.318,77.947 53.041,76.229 52.932,72.07 54.15,69.242 53.597,67.357 55.314,62.922 57.421,67.523 57.145,68.299 
		57.977,70.463 58.475,75.285 57.809,79.889 57.145,80.941 58.253,81.717 59.916,81.717 61.025,80.996 59.973,78.447 60.415,73.4 
		59.916,71.018 60.027,68.078 59.528,65.639 60.415,64.141 60.748,62.035 67.18,61.48 68.4,66.359 65.295,73.9 64.408,74.232 
		62.908,75.564 62.812,76.539 64.646,77.15 65.868,76.631 66.293,76.283 67.18,73.457 70.951,67.855 74.389,60.205 76.828,64.418 
		78.214,68.521 77.992,74.621 77.715,78.336 76.495,79.666 77.493,80.387 79.766,79.721 79.378,78.447 79.988,76.451 	"/>
</g>
</svg>
