<?xml version="1.0" encoding="utf-8"?>
<!-- Generator: Adobe Illustrator 15.0.2, SVG Export Plug-In . SVG Version: 6.00 Build 0)  -->
<!DOCTYPE svg PUBLIC "-//W3C//DTD SVG 1.1//EN" "http://www.w3.org/Graphics/SVG/1.1/DTD/svg11.dtd" [
	<!ENTITY ns_extend "http://ns.adobe.com/Extensibility/1.0/">
	<!ENTITY ns_ai "http://ns.adobe.com/AdobeIllustrator/10.0/">
	<!ENTITY ns_graphs "http://ns.adobe.com/Graphs/1.0/">
	<!ENTITY ns_vars "http://ns.adobe.com/Variables/1.0/">
	<!ENTITY ns_imrep "http://ns.adobe.com/ImageReplacement/1.0/">
	<!ENTITY ns_sfw "http://ns.adobe.com/SaveForWeb/1.0/">
	<!ENTITY ns_custom "http://ns.adobe.com/GenericCustomNamespace/1.0/">
	<!ENTITY ns_adobe_xpath "http://ns.adobe.com/XPath/1.0/">
]>
<svg version="1.1" id="Layer_1" xmlns:x="&ns_extend;" xmlns:i="&ns_ai;" xmlns:graph="&ns_graphs;"
	 xmlns="http://www.w3.org/2000/svg" xmlns:xlink="http://www.w3.org/1999/xlink" x="0px" y="0px" width="108px" height="108px"
	 viewBox="0 0 108 108" enable-background="new 0 0 108 108" xml:space="preserve">
<metadata>
	<sfw  xmlns="&ns_sfw;">
		<slices></slices>
		<sliceSourceBounds  height="82.899" width="82.899" y="-95.449" x="12.55" bottomLeftOrigin="true"></sliceSourceBounds>
	</sfw>
</metadata>
<g>
	<path fill="#F2F7F6" d="M12.55,54c0,22.893,18.558,41.45,41.45,41.45c22.892,0,41.449-18.557,41.449-41.45
		C95.449,31.108,76.893,12.55,54,12.55C31.108,12.55,12.55,31.108,12.55,54"/>
	<path fill="#353635" d="M68.223,66.586c-4.686-2.158-4.996-3.205-5.365-3.945s-4.254-8.633-5.178-10.297
		c-0.926-1.664-4.254-10.233-4.377-10.48s-0.617-0.879-1.034-4.301c-0.416-3.422-1.062-4.531-1.479-5.502
		c-0.416-0.972-1.618-2.59-1.618-2.59s-0.925,0.879-1.249,1.156c-0.323,0.277-1.525,2.404-2.081,1.988
		c-0.555-0.416-1.156-2.266-1.156-2.266c-2.265,0.647-2.265,2.173-2.312,2.404c-0.046,0.231-3.006,0.786-4.809,0.739
		c-1.804-0.046-5.04,0.925-5.549,1.295s-1.11,2.96-1.479,4.394c-0.37,1.433,0.878,3.19,0.878,3.19l1.326-1.56l1.11,1.881
		l0.461-1.911l1.357,1.911l0.524-2.035l1.418,2.22l1.078-1.973l0.771,1.85l0.832-1.881l0.524,1.604l1.634-1.572l0.37,1.973
		l1.232-2.127l-0.523,3.669l-2.158-0.925l0.093,1.695l-1.449-1.202l-0.925,1.51l-1.233-1.818l-0.616,2.188l-0.894-2.157
		l-0.154,2.096l-1.788-2.404l-0.586,1.202l-0.832-1.572l-0.494,3.671l0.153,1.57l11.1-0.277l0.832,2.652L33.85,50.215l-2.035,1.11
		l-1.264,1.511l2.59-0.832l-0.216,2.034l1.788-1.85l0.293,1.732c-1.316,0.551-1.988,5.635-1.988,5.635l1.695-1.85l0.955,1.941
		l1.233-1.91l1.541,1.787l0.771-3.422c0,0,2.959-0.801,3.822-1.047c0.863-0.248,1.85,0.893,1.85,0.893s0.771,1.82,0.709,2.498
		s0.031,3.205-0.246,4.717c-0.278,1.512-0.001,4.963-0.001,4.963l1.511,1.666l-2.343-1.541l-7.152,2.033l4.778,1.049l-2.527,3.67
		l5.056-2.59l0.37,3.391l3.791-5.734c0,0,2.774-1.48,3.977-2.066c1.203-0.584,2.959-2.221,2.959-2.221l12.701,5.611
		c11.098,1.355,22.627-0.863,22.627-0.863S72.908,68.744,68.223,66.586 M42.79,53.237c0,0-5.897,0.318-7.53,0.618l1.118-1.82
		l7.923,0.093L42.79,53.237z"/>
</g>
</svg>
