<?xml version="1.0" encoding="utf-8"?>
<!-- Generator: Adobe Illustrator 15.0.2, SVG Export Plug-In . SVG Version: 6.00 Build 0)  -->
<!DOCTYPE svg PUBLIC "-//W3C//DTD SVG 1.1//EN" "http://www.w3.org/Graphics/SVG/1.1/DTD/svg11.dtd" [
	<!ENTITY ns_extend "http://ns.adobe.com/Extensibility/1.0/">
	<!ENTITY ns_ai "http://ns.adobe.com/AdobeIllustrator/10.0/">
	<!ENTITY ns_graphs "http://ns.adobe.com/Graphs/1.0/">
	<!ENTITY ns_vars "http://ns.adobe.com/Variables/1.0/">
	<!ENTITY ns_imrep "http://ns.adobe.com/ImageReplacement/1.0/">
	<!ENTITY ns_sfw "http://ns.adobe.com/SaveForWeb/1.0/">
	<!ENTITY ns_custom "http://ns.adobe.com/GenericCustomNamespace/1.0/">
	<!ENTITY ns_adobe_xpath "http://ns.adobe.com/XPath/1.0/">
]>
<svg version="1.1" id="Layer_1" xmlns:x="&ns_extend;" xmlns:i="&ns_ai;" xmlns:graph="&ns_graphs;"
	 xmlns="http://www.w3.org/2000/svg" xmlns:xlink="http://www.w3.org/1999/xlink" x="0px" y="0px" width="108px" height="108px"
	 viewBox="0 0 108 108" enable-background="new 0 0 108 108" xml:space="preserve">
<metadata>
	<sfw  xmlns="&ns_sfw;">
		<slices></slices>
		<sliceSourceBounds  height="82.9" width="82.899" y="-95.45" x="12.55" bottomLeftOrigin="true"></sliceSourceBounds>
	</sfw>
</metadata>
<g>
	<path fill="#F2F7F6" d="M12.55,54c0,22.893,18.558,41.45,41.449,41.45c22.893,0,41.45-18.558,41.45-41.45
		c0-22.892-18.557-41.45-41.45-41.45C31.108,12.55,12.55,31.108,12.55,54"/>
	<path fill="#353635" d="M32.927,48.846l-3.566,4.41l-2.954-0.307l-0.688,0.69l2.108,4.143h2.263l2.646,0.996l2.416,0.422
		l4.755-1.035l0.882,0.229l1.458,3.681l-2.493,7.67l-1.495,1.343l-0.499,1.571l3.759-0.459l0.92-1.765l0.46-2.187l2.646-2.684
		l2.146-2.914l2.991,3.988l2.378,2.684v1.112l-1.189,1.036l-0.268,0.92l2.914-0.154l0.804-1.802v-2.069l-1.839-2.11l-0.039-2.109
		L52.1,62.152l4.14,1.111l4.795,0.345l2.453-0.612l3.145-1.189l1.035,1.611v2.684l-1.994,3.528l-1.035,0.69l-0.422,1.303l3.26-0.344
		l0.998-0.922l0.191-2.301l1.418-2.799l1.381-1.305l0.23-2.262l2.301,1.266l1.918,2.57v4.178l-1.074,1.611l-0.498,1.534h2.07
		l1.725-1.534v-5.789l0.385-2.608l-0.768-3.183l0.959-3.834v-4.142l-1.342-4.065l-1.803-2.225l0.498-0.498l2.186,0.384l1.42-0.384
		v-1.764l-1.381-1.419c0,0-2.109,1.074-1.764,1.074c0.344,0,1.648-0.039,1.648-0.039l0.461,0.844l-0.422,0.499l-1.842-0.077
		l-1.533-0.69l-0.945-0.204l-0.576,0.485l-0.191,0.716l-0.205-0.115l-3.145-1.342h-5.789l-10.7,1.725l-4.18-0.076l-4.026-0.499
		l-2.53,0.537l-1.343-2.109l-1.879-1.802l0.115-0.882l-2.838,1.457l-0.114,2.607l-0.499,0.461l-1.726-1.535l-2.301-0.766
		l-0.422-1.342l-1.227,2.416l-0.039,2.07L32.927,48.846z"/>
</g>
</svg>
