<?xml version="1.0" encoding="utf-8"?>
<!-- Generator: Adobe Illustrator 15.0.2, SVG Export Plug-In . SVG Version: 6.00 Build 0)  -->
<!DOCTYPE svg PUBLIC "-//W3C//DTD SVG 1.1//EN" "http://www.w3.org/Graphics/SVG/1.1/DTD/svg11.dtd" [
	<!ENTITY ns_extend "http://ns.adobe.com/Extensibility/1.0/">
	<!ENTITY ns_ai "http://ns.adobe.com/AdobeIllustrator/10.0/">
	<!ENTITY ns_graphs "http://ns.adobe.com/Graphs/1.0/">
	<!ENTITY ns_vars "http://ns.adobe.com/Variables/1.0/">
	<!ENTITY ns_imrep "http://ns.adobe.com/ImageReplacement/1.0/">
	<!ENTITY ns_sfw "http://ns.adobe.com/SaveForWeb/1.0/">
	<!ENTITY ns_custom "http://ns.adobe.com/GenericCustomNamespace/1.0/">
	<!ENTITY ns_adobe_xpath "http://ns.adobe.com/XPath/1.0/">
]>
<svg version="1.1" id="Layer_1" xmlns:x="&ns_extend;" xmlns:i="&ns_ai;" xmlns:graph="&ns_graphs;"
	 xmlns="http://www.w3.org/2000/svg" xmlns:xlink="http://www.w3.org/1999/xlink" x="0px" y="0px" width="108px" height="108px"
	 viewBox="0 0 108 108" enable-background="new 0 0 108 108" xml:space="preserve">
<metadata>
	<sfw  xmlns="&ns_sfw;">
		<slices></slices>
		<sliceSourceBounds  height="82.899" width="82.898" y="-95.449" x="12.551" bottomLeftOrigin="true"></sliceSourceBounds>
	</sfw>
</metadata>
<g>
	<path fill="#F2F7F6" d="M95.449,54c0,22.893-18.558,41.45-41.449,41.45S12.551,76.893,12.551,54
		C12.551,31.108,31.108,12.55,54,12.55S95.449,31.108,95.449,54"/>
	<polygon fill="#353635" points="31.993,42.431 29.418,46.089 29.635,46.763 29.923,46.956 29.948,47.485 31.415,49.097 
		32.402,48.496 33.991,48.423 35.627,50.542 35.627,58.098 36.854,60.096 36.565,61.742 38.707,62.67 38.73,64.521 41.451,66.617 
		41.787,67.867 41.787,71.549 40.44,73.908 40.391,75.326 41.09,75.326 41.114,74.678 41.474,75.326 43.087,75.326 43.544,74.27 
		43.544,72.512 44.41,68.35 43.857,66.424 45.614,67.531 46.479,69.312 46.479,72.344 45.301,74.053 45.277,75.326 45.951,75.326 
		46.287,74.678 46.36,75.326 47.78,75.326 48.285,74.389 48.285,73.113 49.368,69.168 49.079,66.904 50.884,64.426 52.737,66.182 
		55.816,65.27 57.32,66.146 58.801,65.172 60.137,66.182 61.593,64.74 62.844,65.533 64.144,64.498 64.455,66.279 66.671,69.191 
		66.671,72.682 65.804,74.148 65.804,74.99 66.382,74.99 66.898,74.475 66.898,74.99 68.066,74.99 68.402,74.029 68.402,71.092 
		69.462,68.469 69.462,66.592 72.181,68.951 72.181,71.189 70.641,74.389 70.641,74.99 71.387,74.99 71.796,74.316 71.796,75.039 
		73.408,75.039 73.89,74.076 73.89,72.584 75.31,69.672 75.598,66.352 76.32,65.75 75.623,61.154 77.716,57.844 77.428,55.113 
		78.582,53.259 77.668,51.143 78.174,49.747 75.888,46.786 74.996,44.127 69.847,42.358 65.299,42.755 63.71,43.803 59.92,43.513 
		57.719,44.79 50.21,44.79 48.405,43.224 45.927,42.937 42.654,38.388 39.63,36.535 38.514,37.113 37.456,36.535 36.06,37.209 
		34.135,37.185 33.052,38.292 32.065,38.316 31.415,39.182 31.415,40.048 30.573,40.771 30.886,42.046 	"/>
</g>
</svg>
